<svg xmlns="http://www.w3.org/2000/svg" viewBox="0 0 24 16">
<rect width="24" height="16" rx="2" fill="#fff"/>
<g fill="#B22234">
<rect y="0" width="24" height="1.23"/><rect y="2.46" width="24" height="1.23"/>
<rect y="4.92" width="24" height="1.23"/><rect y="7.38" width="24" height="1.23"/>
<rect y="9.84" width="24" height="1.23"/><rect y="12.3" width="24" height="1.23"/>
<rect y="14.77" width="24" height="1.23"/>
</g>
<rect width="10.3" height="8.62" rx="1" fill="#3C3B6E"/>
<g fill="#fff">
<circle cx="1.3" cy="1.1" r=".36"/><circle cx="3.2" cy="1.1" r=".36"/><circle cx="5.1" cy="1.1" r=".36"/><circle cx="7" cy="1.1" r=".36"/><circle cx="8.9" cy="1.1" r=".36"/>
<circle cx="2.25" cy="2.25" r=".36"/><circle cx="4.15" cy="2.25" r=".36"/><circle cx="6.05" cy="2.25" r=".36"/><circle cx="7.95" cy="2.25" r=".36"/>
<circle cx="1.3" cy="3.4" r=".36"/><circle cx="3.2" cy="3.4" r=".36"/><circle cx="5.1" cy="3.4" r=".36"/><circle cx="7" cy="3.4" r=".36"/><circle cx="8.9" cy="3.4" r=".36"/>
<circle cx="2.25" cy="4.55" r=".36"/><circle cx="4.15" cy="4.55" r=".36"/><circle cx="6.05" cy="4.55" r=".36"/><circle cx="7.95" cy="4.55" r=".36"/>
<circle cx="1.3" cy="5.7" r=".36"/><circle cx="3.2" cy="5.7" r=".36"/><circle cx="5.1" cy="5.7" r=".36"/><circle cx="7" cy="5.7" r=".36"/><circle cx="8.9" cy="5.7" r=".36"/>
<circle cx="2.25" cy="6.85" r=".36"/><circle cx="4.15" cy="6.85" r=".36"/><circle cx="6.05" cy="6.85" r=".36"/><circle cx="7.95" cy="6.85" r=".36"/>
</g></svg>